<svg version="1.0" xmlns="http://www.w3.org/2000/svg" height="100%" width="100%"
            viewBox="0 0 1920.000000 1920.000000" preserveAspectRatio="xMidYMid meet">

            <g transform="translate(0.000000,1920.000000) scale(0.100000,-0.100000)" fill="#FFFFFF">
              <path d="M8709 16067 c-86 -144 -362 -608 -614 -1032 -252 -423 -626 -1051
-830 -1395 -205 -344 -803 -1349 -1330 -2235 -527 -885 -1126 -1892 -1331
-2237 -206 -345 -374 -630 -374 -633 0 -3 514 -6 1143 -7 l1142 -3 -3 -30 c-2
-16 -154 -966 -338 -2110 -184 -1144 -386 -2399 -449 -2790 -63 -390 -113
-711 -111 -712 4 -4 63 96 971 1622 389 655 769 1294 845 1420 75 127 243 408
372 625 129 217 723 1214 1318 2215 1191 2001 1130 1897 1130 1907 0 4 -514 8
-1142 8 l-1143 0 2 28 c1 15 54 349 117 742 64 393 266 1651 450 2795 184
1143 334 2080 333 2081 -1 1 -72 -116 -158 -259z" />
              <path d="M8951 14908 c-9 -57 -91 -574 -266 -1695 -36 -227 -65 -419 -65 -427
0 -13 146 -15 1178 -19 1023 -3 1193 -6 1300 -20 674 -91 1032 -349 1124 -811
26 -134 21 -348 -12 -476 -95 -367 -374 -603 -842 -715 -189 -45 -356 -62
-652 -68 l-78 -2 -629 -1055 -628 -1055 1067 -6 c1130 -6 1132 -6 1370 -55
349 -72 610 -214 762 -415 118 -157 174 -325 187 -555 23 -430 -161 -761 -527
-948 -176 -90 -348 -140 -630 -183 -104 -15 -252 -17 -1562 -20 l-1448 -4 0
443 c0 277 -4 438 -9 432 -14 -13 -1811 -3066 -1811 -3076 0 -11 4542 -10
4915 2 776 25 1368 109 1930 275 942 278 1612 777 1949 1453 93 184 140 313
190 509 177 708 80 1508 -254 2091 -335 585 -853 1001 -1595 1282 l-29 11 72
39 c681 370 1137 961 1296 1680 51 235 60 326 61 620 0 181 -5 306 -13 365
-104 693 -418 1221 -975 1638 -578 433 -1428 709 -2452 797 -303 25 -559 30
-1701 30 l-1212 0 -11 -62z" />
            </g>
          </svg>